#!OML:ASF F:\VICON\USERDATA\INSTALL\rory3\rory3.ASF
:FULLY-SPECIFIED
:DEGREES
1
root 0.8911845775301862 17.614016908767546 -27.753882810931586 -2.557117620901642 2.478065624440577 2.7007181956544
lfemur 18.61418182588035 -5.087219935322867 -27.718688598960743
ltibia 16.86250813661276
lfoot -13.176991256138464 -5.263033689998436
ltoes -9.932000724112347
rfemur -28.629889124593245 5.4299365603677625 18.516810547025916
rtibia 22.81950772748305
rfoot -8.440169871965605 -12.094789268834269
rtoes -0.03645428324897937
lowerback 9.200288598976384 -2.062093654206112 -5.642134203544158
upperback 0.407810755309412 -3.2522931733549005 1.7192093375624766
thorax -4.319575062662073 -1.4846631328480893 5.3855314113601755
lowerneck -17.007494844962242 -2.2214733804540057 -1.9956294702103032
upperneck 21.172498100942544 -2.4885758653631287 -0.28807738763429047
head 9.522917120858535 -1.3565839056894808 -0.09425422006781292
lclavicle -1.9532405922808245e-15 9.067692178406129e-16
lhumerus -23.189310816836542 -0.9676577831332345 81.1787110510693
lradius 30.576688717874422
lwrist 6.029985151150342
lhand -32.670471303819006 25.677993844501934
lfingers 7.12502
lthumb -5.896071305809948 55.57599404532125
rclavicle -1.9532405922808245e-15 9.067692178406129e-16
rhumerus -32.95658672227901 -19.223197879519294 -77.31120622161284
rradius 25.22389881168173
rwrist 5.408491851014921
rhand -17.464200510047966 22.576299130154393
rfingers 7.12502
rthumb 8.787449488458098 -7.220800869459814
2
root 0.8420477524627379 17.709011580649708 -26.893983194915705 -2.778195876135916 2.0583569186238173 0.18071339109099283
lfemur 16.97768293234622 -6.267415410752033 -25.314492060187156
ltibia 24.83490374693378
lfoot -9.31986581094818 -7.8183000775291625
ltoes -16.35698141786348
rfemur -27.15119012483577 5.98079459819447 21.579306041252124
rtibia 24.467306792041775
rfoot -5.496892944943159 -9.60747390201631
rtoes 1.3429333213165537
lowerback 9.211848454380272 -1.9730241855171124 -2.8800705329512137
upperback 0.24782111061750267 -2.809964873877445 2.444352010878942
thorax -4.6456676377214166 -1.3025746472458868 4.540184901078545
lowerneck -17.02769457194854 -2.7213058387342706 -2.412583226939152
upperneck 22.215785711894657 -3.0439839573857865 -0.41518671789279915
head 9.906855069745296 -1.6670166295233049 -0.152782588187951
lclavicle -1.9532406232003784e-15 9.067692373674622e-16
lhumerus -24.059209445290108 -0.46195774250305965 82.03600620259046
lradius 30.610588645692655
lwrist 6.360514064557918
lhand -32.81177056456272 24.77579631805432
lfingers 7.12502
lthumb -6.032530566572108 54.66989652917737
rclavicle -1.9532406232003784e-15 9.067692373674622e-16
rhumerus -33.70948463242888 -21.846693521402166 -75.2758131682346
rradius 23.431004278340723
rwrist 7.533606570820963
rhand -17.049404075106438 23.479895532180684
rfingers 7.12502
rthumb 9.187635924281938 -6.29992454767711
3
root 0.8092755360938257 17.772907996789392 -26.048283572558887 -2.917004780645911 1.1233998015895392 -0.3507893022086217
lfemur 14.046584914113378 -4.8850107105418665 -24.10609379987024
ltibia 33.6902988710666
lfoot 1.651811232796712 -11.816484425156386
ltoes -12.47178704536457
rfemur -25.85349100264381 4.367200345866886 23.03060390599351
rtibia 27.432005109008173
rfoot -4.474254012646462 -5.871540861028485
rtoes 3.82558936991909
lowerback 9.145829280179191 -1.9476643367919175 -2.213172061182414
upperback -0.18713304887010956 -2.684405356588575 2.800798409422213
thorax -5.090367512160668 -1.234625212369351 4.5348849229576516
lowerneck -15.83291072030342 -2.422586322355229 -2.831386955967379
upperneck 21.960488743547995 -2.5440046769666242 -0.4542532047051838
head 9.594514873535426 -1.4774671783075222 -0.012163129696143277
lclavicle -1.9532405896085018e-15 9.06769216538837e-16
lhumerus -26.76220518354736 1.9633576564009738 82.31540462243767
lradius 30.430189029810368
lwrist 5.882025637557673
lhand -32.795770648271855 18.140814509165004
lfingers 7.12502
lthumb -6.017020650593633 48.03531471634418
rclavicle -1.9532405896085018e-15 9.06769216538837e-16
rhumerus -34.79538161825933 -23.536790713834485 -73.05832073634595
rradius 21.791509277273974
rwrist 10.164890032968232
rhand -16.72900682883049 23.18429670920705
rfingers 7.12502
rthumb 9.496773171016196 -6.581693422219627
4
root 0.7409431700195226 17.87780211342559 -25.24718393028624 -3.3511113546451456 1.0382400641819025 -1.2012322113931084
lfemur 9.044678295990842 -3.074957649827313 -21.839597062855734
ltibia 43.48849347608484
lfoot 11.52457957422303 -14.265680962641722
ltoes 9.643160922288661
rfemur -23.457292623514284 3.0630449913084217 24.810901286686054
rtibia 29.164904125256353
rfoot -5.30567314458939 -3.4935652905406784
rtoes 4.493658306620008
lowerback 9.6145834167817 -1.7064457756920994 -1.2991241557689108
upperback 0.07612448461816029 -2.2598369888334164 2.925927145148733
thorax -5.146596231865013 -1.047886765440054 4.107376687776371
lowerneck -16.368903475979504 -2.580710772946124 -2.531171451254371
upperneck 21.56919339018313 -2.8469481818426914 -0.3615374226440097
head 9.555896085708868 -1.5785915505456112 -0.07301982096396595
lclavicle -1.953240600916162e-15 9.067692269531578e-16
lhumerus -27.72530366505515 1.1998091049384156 83.04350050465224
lradius 30.952787917061382
lwrist 6.8962723032873585
lhand -31.276278598023787 20.26320869020294
lfingers 7.12502
lthumb -4.549888598456849 50.19440879768867
rclavicle -1.953240600916162e-15 9.067692269531578e-16
rhumerus -34.790481631860445 -24.49098912873238 -72.66832206737793
rradius 21.670109647429804
rwrist 10.208989923394878
rhand -16.500008797004046 22.51639936866549
rfingers 7.12502
rthumb 9.71772120318911 -7.239370795286746
